<svg width="960" height="960" viewBox="0 0 960 960" fill="none" xmlns="http://www.w3.org/2000/svg">
  <rect width="960" height="960" rx="96" fill="#08111F"/>
  <rect x="56" y="56" width="848" height="848" rx="64" fill="url(#paint0_linear)"/>
  <circle cx="754" cy="212" r="118" fill="#FF8C42" fill-opacity="0.16"/>
  <circle cx="216" cy="742" r="154" fill="#56D8FF" fill-opacity="0.14"/>
  <rect x="132" y="168" width="696" height="424" rx="36" fill="#0E1B31" stroke="#24364F" stroke-width="6"/>
  <rect x="168" y="208" width="624" height="52" rx="18" fill="#132540"/>
  <circle cx="204" cy="234" r="10" fill="#FF8C42"/>
  <circle cx="236" cy="234" r="10" fill="#FFD166"/>
  <circle cx="268" cy="234" r="10" fill="#56D8FF"/>
  <rect x="188" y="306" width="244" height="232" rx="26" fill="#122137"/>
  <rect x="464" y="306" width="308" height="96" rx="22" fill="#122137"/>
  <rect x="484" y="332" width="160" height="18" rx="9" fill="#56D8FF" fill-opacity="0.72"/>
  <rect x="484" y="366" width="214" height="14" rx="7" fill="#6B7C95"/>
  <rect x="464" y="426" width="308" height="112" rx="22" fill="#122137"/>
  <rect x="484" y="452" width="98" height="18" rx="9" fill="#FF8C42" fill-opacity="0.78"/>
  <rect x="484" y="486" width="244" height="14" rx="7" fill="#6B7C95"/>
  <rect x="214" y="338" width="130" height="18" rx="9" fill="#56D8FF" fill-opacity="0.8"/>
  <rect x="214" y="374" width="176" height="14" rx="7" fill="#6B7C95"/>
  <rect x="214" y="416" width="108" height="18" rx="9" fill="#FF8C42" fill-opacity="0.76"/>
  <rect x="214" y="452" width="146" height="14" rx="7" fill="#6B7C95"/>
  <rect x="214" y="494" width="92" height="18" rx="9" fill="#56D8FF" fill-opacity="0.68"/>
  <path d="M244 700C244 676.804 262.804 658 286 658H674C697.196 658 716 676.804 716 700V716C716 739.196 697.196 758 674 758H286C262.804 758 244 739.196 244 716V700Z" fill="#0E1B31" stroke="#24364F" stroke-width="6"/>
  <rect x="336" y="730" width="288" height="34" rx="17" fill="#132540"/>
  <rect x="176" y="610" width="608" height="28" rx="14" fill="#0D1728"/>
  <path d="M330 610L394 570H566L630 610H330Z" fill="#132540"/>
  <rect x="364" y="782" width="232" height="36" rx="18" fill="#0D1728"/>
  <defs>
    <linearGradient id="paint0_linear" x1="112" y1="112" x2="850" y2="848" gradientUnits="userSpaceOnUse">
      <stop stop-color="#0D1A2E"/>
      <stop offset="1" stop-color="#07111F"/>
    </linearGradient>
  </defs>
</svg>
