<svg width="1200" height="760" viewBox="0 0 1200 760" fill="none" xmlns="http://www.w3.org/2000/svg">
  <rect width="1200" height="760" rx="36" fill="#07111F"/>
  <rect x="36" y="36" width="1128" height="688" rx="30" fill="#0D1A2D" stroke="#253346"/>
  <rect x="80" y="94" width="310" height="560" rx="36" fill="#132641" stroke="#314A68"/>
  <rect x="445" y="94" width="310" height="560" rx="36" fill="#132641" stroke="#314A68"/>
  <rect x="810" y="94" width="310" height="560" rx="36" fill="#132641" stroke="#314A68"/>
  <rect x="118" y="140" width="234" height="26" rx="13" fill="#EEF5FF"/>
  <rect x="483" y="140" width="234" height="26" rx="13" fill="#EEF5FF"/>
  <rect x="848" y="140" width="234" height="26" rx="13" fill="#EEF5FF"/>
  <rect x="118" y="194" width="234" height="132" rx="28" fill="#173155"/>
  <rect x="483" y="194" width="234" height="132" rx="28" fill="#173155"/>
  <rect x="848" y="194" width="234" height="132" rx="28" fill="#173155"/>
  <rect x="118" y="360" width="234" height="22" rx="11" fill="#8FA3BA"/>
  <rect x="118" y="402" width="178" height="42" rx="21" fill="#FF8C42"/>
  <rect x="483" y="360" width="234" height="22" rx="11" fill="#8FA3BA"/>
  <rect x="483" y="402" width="178" height="42" rx="21" fill="#56D8FF" fill-opacity="0.2"/>
  <rect x="848" y="360" width="234" height="22" rx="11" fill="#8FA3BA"/>
  <rect x="848" y="402" width="178" height="42" rx="21" fill="#FF8C42"/>
  <rect x="118" y="482" width="234" height="120" rx="28" fill="#10233D"/>
  <rect x="483" y="482" width="234" height="120" rx="28" fill="#10233D"/>
  <rect x="848" y="482" width="234" height="120" rx="28" fill="#10233D"/>
</svg>
