<svg width="1200" height="760" viewBox="0 0 1200 760" fill="none" xmlns="http://www.w3.org/2000/svg">
  <rect width="1200" height="760" rx="36" fill="#07111F"/>
  <rect x="36" y="36" width="1128" height="688" rx="30" fill="#0E1C31" stroke="#253247"/>
  <rect x="84" y="84" width="270" height="592" rx="28" fill="#132641" stroke="#314A68"/>
  <rect x="118" y="130" width="202" height="32" rx="16" fill="#56D8FF" fill-opacity="0.18"/>
  <rect x="118" y="190" width="202" height="124" rx="24" fill="#1A3356"/>
  <rect x="142" y="224" width="110" height="18" rx="9" fill="#EEF5FF"/>
  <rect x="142" y="258" width="146" height="38" rx="19" fill="#FF8C42"/>
  <rect x="118" y="348" width="202" height="92" rx="24" fill="#10233D"/>
  <rect x="118" y="462" width="202" height="92" rx="24" fill="#10233D"/>
  <rect x="392" y="84" width="724" height="220" rx="30" fill="#132641"/>
  <circle cx="470" cy="162" r="34" fill="#56D8FF" fill-opacity="0.18"/>
  <rect x="526" y="130" width="248" height="24" rx="12" fill="#EEF5FF"/>
  <rect x="526" y="172" width="176" height="18" rx="9" fill="#8FA3BA"/>
  <rect x="526" y="226" width="180" height="48" rx="24" fill="#FF8C42"/>
  <rect x="392" y="338" width="340" height="338" rx="30" fill="#10233D"/>
  <rect x="430" y="382" width="210" height="22" rx="11" fill="#EEF5FF"/>
  <rect x="430" y="426" width="264" height="18" rx="9" fill="#8FA3BA"/>
  <rect x="430" y="486" width="262" height="120" rx="24" fill="#173155"/>
  <rect x="776" y="338" width="340" height="338" rx="30" fill="#10233D"/>
  <rect x="814" y="382" width="210" height="22" rx="11" fill="#EEF5FF"/>
  <rect x="814" y="426" width="240" height="18" rx="9" fill="#8FA3BA"/>
  <rect x="814" y="486" width="264" height="40" rx="20" fill="#56D8FF" fill-opacity="0.18"/>
  <rect x="814" y="544" width="264" height="40" rx="20" fill="#56D8FF" fill-opacity="0.1"/>
</svg>
