<svg width="1200" height="760" viewBox="0 0 1200 760" fill="none" xmlns="http://www.w3.org/2000/svg">
  <rect width="1200" height="760" rx="36" fill="#07111F"/>
  <rect x="36" y="36" width="1128" height="688" rx="30" fill="#0D1B2F" stroke="#253447"/>
  <rect x="72" y="72" width="1056" height="68" rx="22" fill="#12233B"/>
  <rect x="106" y="95" width="250" height="22" rx="11" fill="#EEF5FF"/>
  <rect x="72" y="176" width="244" height="512" rx="28" fill="#10233D"/>
  <rect x="344" y="176" width="784" height="244" rx="28" fill="#132641"/>
  <rect x="344" y="444" width="378" height="244" rx="28" fill="#132641"/>
  <rect x="750" y="444" width="378" height="244" rx="28" fill="#132641"/>
  <rect x="106" y="230" width="140" height="18" rx="9" fill="#8FA3BA"/>
  <rect x="106" y="274" width="176" height="36" rx="18" fill="#56D8FF" fill-opacity="0.16"/>
  <rect x="106" y="334" width="176" height="36" rx="18" fill="#FF8C42" fill-opacity="0.24"/>
  <rect x="106" y="394" width="176" height="36" rx="18" fill="#56D8FF" fill-opacity="0.12"/>
  <rect x="386" y="220" width="240" height="24" rx="12" fill="#EEF5FF"/>
  <rect x="386" y="268" width="328" height="18" rx="9" fill="#8FA3BA"/>
  <rect x="386" y="320" width="700" height="56" rx="20" fill="#173155"/>
  <rect x="386" y="488" width="168" height="22" rx="11" fill="#EEF5FF"/>
  <rect x="386" y="532" width="284" height="18" rx="9" fill="#8FA3BA"/>
  <rect x="792" y="488" width="168" height="22" rx="11" fill="#EEF5FF"/>
  <rect x="792" y="532" width="250" height="18" rx="9" fill="#8FA3BA"/>
</svg>
