<svg width="1200" height="760" viewBox="0 0 1200 760" fill="none" xmlns="http://www.w3.org/2000/svg">
  <rect width="1200" height="760" rx="36" fill="#07111F"/>
  <rect x="36" y="36" width="1128" height="688" rx="30" fill="#0D1B2F" stroke="#263548"/>
  <rect x="72" y="72" width="1056" height="76" rx="24" fill="#12233B"/>
  <rect x="108" y="98" width="228" height="24" rx="12" fill="#EEF5FF"/>
  <rect x="388" y="96" width="148" height="28" rx="14" fill="#56D8FF" fill-opacity="0.14"/>
  <rect x="570" y="96" width="148" height="28" rx="14" fill="#56D8FF" fill-opacity="0.14"/>
  <rect x="752" y="96" width="148" height="28" rx="14" fill="#FF8C42" fill-opacity="0.24"/>
  <rect x="72" y="182" width="700" height="506" rx="30" fill="#132641"/>
  <rect x="804" y="182" width="324" height="506" rx="30" fill="#10233D"/>
  <circle cx="190" cy="304" r="52" fill="#56D8FF" fill-opacity="0.18"/>
  <circle cx="344" cy="304" r="52" fill="#FF8C42" fill-opacity="0.3"/>
  <circle cx="498" cy="304" r="52" fill="#56D8FF" fill-opacity="0.12"/>
  <circle cx="652" cy="304" r="52" fill="#56D8FF" fill-opacity="0.18"/>
  <circle cx="190" cy="474" r="52" fill="#FF8C42" fill-opacity="0.2"/>
  <circle cx="344" cy="474" r="52" fill="#56D8FF" fill-opacity="0.16"/>
  <circle cx="498" cy="474" r="52" fill="#FF8C42" fill-opacity="0.3"/>
  <circle cx="652" cy="474" r="52" fill="#56D8FF" fill-opacity="0.1"/>
  <rect x="844" y="228" width="200" height="22" rx="11" fill="#EEF5FF"/>
  <rect x="844" y="274" width="244" height="18" rx="9" fill="#8FA3BA"/>
  <rect x="844" y="330" width="240" height="96" rx="24" fill="#173155"/>
  <rect x="844" y="456" width="240" height="96" rx="24" fill="#173155"/>
  <rect x="844" y="582" width="180" height="42" rx="21" fill="#FF8C42"/>
</svg>
